<svg xmlns="http://www.w3.org/2000/svg" width="40" height="40">
  <path d="M19.5 37.5c9.9402 0 17.9996-8.0594 17.9996-17.9997S29.4402 1.5001 19.5 1.5001 1.5005 9.5608 1.5005 19.5003 9.5604 37.5 19.5 37.5zm7.508-25.303c1.9499 0 3.5279 1.5785 3.5279 3.5278s-1.578 3.5287-3.5279 3.5287-3.5278-1.5812-3.5278-3.5287 1.5809-3.5278 3.5278-3.5278zm-7.4917 11.9531c2.2235 0 4.4442.3337 6.3246 1.2695 4.0457 2.0125 2.4026 5.0555-1.5783 3.9715-1.5226-.4145-3.0767-.996-4.7463-.996-1.6414 0-3.474.3272-4.6708.9673-3.0646 1.6378-6.6899-1.6271-1.311-4.0651 1.8069-.819 3.8872-1.1472 5.9818-1.1472zM12.2642 12.197c1.9486 0 3.5281 1.5785 3.5281 3.5278s-1.5795 3.5287-3.5281 3.5287-3.5285-1.5812-3.5285-3.5287 1.5803-3.5278 3.5285-3.5278z"
    fill="#92857a" />
</svg>