<svg xmlns="http://www.w3.org/2000/svg" width="40" height="40">
  <path d="M19.3993 37.4999c9.9965 0 18.1007-8.1042 18.1007-18.1007S29.3958 1.2977 19.3993 1.2977 1.2991 9.4036 1.2991 19.3992s8.1046 18.1007 18.1002 18.1007zm6.6235-24.2494a2.351 2.351 0 0 1 2.3516 2.3519c0 1.2977-1.052 2.3516-2.3516 2.3516s-2.351-1.0539-2.351-2.3516a2.352 2.352 0 0 1 2.351-2.3519zm.4476 13.1413c2.3239 1.9933-.0691 3.6214-1.7801 2.1398-1.4184-1.2288-3.2666-1.9726-5.291-1.9726s-3.876.745-5.2946 1.9758c-1.7084 1.4829-4.1264-.0941-1.8408-2.0862 1.9079-1.6641 4.4042-2.6715 7.1354-2.6715 2.6997 0 5.1707.9846 7.0711 2.6147zM12.8458 13.2505c1.3003 0 2.3523 1.052 2.3523 2.3519s-1.052 2.3516-2.3523 2.3516-2.3499-1.0539-2.3499-2.3516 1.0529-2.3519 2.3499-2.3519z"
    fill="#c4b6ab" />
</svg>