<svg xmlns="http://www.w3.org/2000/svg" width="40" height="40">
  <path d="M19.5003 37.1622c9.7537 0 17.6618-7.9081 17.6618-17.6618S29.254 1.8377 19.5003 1.8377 1.8377 9.7461 1.8377 19.5004 9.746 37.1622 19.5003 37.1622zm2.8395-25.7241c1.3211-1.2398 3.0342-1.4906 4.59-1.261 1.3874.2041 2.5771.7524 3.7069 2.1222 1.49 1.8054-1.0795 3.4859-2.0079 2.6416-.5595-.5108-1.3146-.9031-2.2486-1.0404-1.0428-.1538-1.9416.1036-2.7526.577-1.3938.7792-2.9283-1.4999-1.2878-3.0394zm6.2304 10.2165c.8973 0 1.7478.2628 1.362 1.9647-1.073 4.7723-5.3359 8.249-10.4319 8.249-5.1657 0-9.4745-3.5735-10.4728-8.442-.0756-.6852-.1123-1.7717 1.4052-1.7717h18.1375zM8.3465 12.2993c1.1311-1.3698 2.3194-1.9181 3.7082-2.1222 1.5547-.2296 3.2676.0212 4.5901 1.261 1.6389 1.5395.1066 3.8186-1.2893 3.0394-.811-.4734-1.7083-.7308-2.7511-.577-.9354.1373-1.6906.5296-2.2501 1.0404-.9269.8443-3.4965-.8362-2.0078-2.6416z"
    fill="#c4b6ab"/>
</svg>