<svg xmlns="http://www.w3.org/2000/svg" width="40" height="40">
  <path d="M17.9999 36.0002C27.9413 36.0002 36 27.9415 36 18.0001S27.9413-.0002 17.9999-.0002 0 8.0587 0 18.0001s8.0585 18.0001 17.9999 18.0001zm6.4869-26.713c2.0311 0 4.2769 1.4443 4.2769 3.1594 0 .8873-1.198 1.0335-1.7403.3665-.4803-.5904-1.3654-1.0765-2.5366-1.0765-1.1146 0-1.9289.4912-2.6185 1.1465-.6336.6024-1.6582.4908-1.6582-.4365 0-1.7151 2.2457-3.1594 4.2767-3.1594zm2.757 10.9087c.9151 0 1.782.2686 1.3875 2.0024-1.0923 4.8639-5.4377 8.4081-10.6314 8.4081-5.2634 0-9.6555-3.6426-10.6736-8.6047-.0767-.6981-.113-1.8058 1.432-1.8058h18.4855zM11.4549 9.2872c2.0308 0 4.2765 1.4443 4.2765 3.1594 0 .9273-1.0244 1.0389-1.6583.4365-.6893-.6553-1.5036-1.1465-2.6182-1.1465-1.1715 0-2.0564.4861-2.5366 1.0765-.5428.667-1.7403.5208-1.7403-.3665 0-1.7151 2.2458-3.1594 4.2769-3.1594z"
    fill="#c4b6ab" />
</svg>