<svg xmlns="http://www.w3.org/2000/svg" width="40" height="40">
  <path d="M1.5005,19.5003C1.5005,9.5608,9.5598,1.5001,19.5,1.5001s17.9996,8.0599,17.9996,18.0002-8.0594,17.9997-17.9996,17.9997c-9.9396,0-17.9995-8.0602-17.9995-17.9997Zm21.9797-3.7755c0,1.9475,1.5779,3.5287,3.5278,3.5287s3.5279-1.5794,3.5279-3.5287-1.578-3.5278-3.5279-3.5278c-1.9469,0-3.5278,1.5803-3.5278,3.5278Zm-14.7445,0c0,1.9475,1.5799,3.5287,3.5285,3.5287s3.5281-1.5794,3.5281-3.5287-1.5795-3.5278-3.5281-3.5278c-1.9482,0-3.5285,1.5803-3.5285,3.5278ZM19.50005,32.51661c2.85073,0,5.1617-2.31097,5.1617-5.1617s-2.31097-5.1617-5.1617-5.1617-5.1617,2.31097-5.1617,5.1617s2.31097,5.1617,5.1617,5.1617Z" fill="#92857a" />
</svg>
