<svg xmlns="http://www.w3.org/2000/svg" width="40" height="40">
  <path d="M32.8629 15.6131c-.643-.7447-1.5786-1.1724-2.5625-1.1717h-.0265l-10.927.0882h-.004c-.1429.0022-.2766-.0705-.3524-.1917s-.0896-.2793-.0264-.4119c.4653-1.006.8926-2.1972 1.2023-3.3583.2383-.8953.5245-2.2091.5245-3.3832 0-2.5678-.9729-4.0767-1.789-4.8887-1.0621-1.0562-2.331-1.4324-3.1646-1.4324-.3536 0-.8736.0662-1.3366.3815-.4011.2724-.8792.8116-.8792 1.834 0 2.8291-.2162 5.2254-2.937 8.1464l-.2383.256c-2.1252 2.2742-5.0351 5.3906-5.0351 9.3871v11.3385c0 3.2749 2.6549 5.9298 5.9299 5.9298h16.4563a3.389 3.389 0 0 0 3.3491-2.8733l2.6028-16.9183c.1518-.982-.1358-1.981-.7863-2.732z"
    fill="#92857a" />
</svg>