<?xml version="1.0" encoding="UTF-8"?>
<svg version="1.1" xmlns="http://www.w3.org/2000/svg" width="1568" height="740">
<path d="M0 0 C517.44 0 1034.88 0 1568 0 C1568 244.2 1568 488.4 1568 740 C1050.56 740 533.12 740 0 740 C0 495.8 0 251.6 0 0 Z " fill="#FFFFFF" transform="translate(0,0)"/>
<path d="M0 0 C3.27614431 1.64336113 6.38412254 3.51011652 9.5 5.4375 C10.38349121 5.97665039 11.26698242 6.51580078 12.17724609 7.07128906 C23.35843322 13.96794433 33.89578674 21.60011187 44 30 C45.0209375 30.8353125 46.041875 31.670625 47.09375 32.53125 C60.95568549 44.02656291 74.00459087 56.71754225 85 71 C85.93392578 72.11568359 85.93392578 72.11568359 86.88671875 73.25390625 C123.07774743 116.63909479 142.19462065 175.1237501 142.13803101 231.27293396 C142.14085229 232.43641501 142.14367357 233.59989606 142.14658034 234.79863411 C142.15484815 238.65930144 142.15625783 242.51993981 142.15771484 246.38061523 C142.16182911 249.16453766 142.16746793 251.94845641 142.17311096 254.7323761 C142.18458357 260.71094546 142.19285568 266.68951208 142.19923019 272.66808891 C142.20961876 282.1391825 142.23019884 291.61024176 142.25234985 301.08131409 C142.25982793 304.33130158 142.26724195 307.58128921 142.27463722 310.83127689 C142.27648779 311.64332386 142.27833835 312.45537083 142.280245 313.29202528 C142.30113209 322.51621339 142.31997825 331.74040527 142.33789062 340.96459961 C142.33952881 341.80679308 142.34116699 342.64898656 142.34285481 343.51670105 C142.36910482 357.14537722 142.38777129 370.77405607 142.40448253 384.40274679 C142.42197118 398.44031004 142.45088662 412.47782094 142.4893719 426.5153423 C142.51262167 435.14782255 142.5267528 443.7802174 142.52869953 452.41272921 C142.53082703 458.34226088 142.54390538 464.27170798 142.56517886 470.20120155 C142.57707094 473.60858015 142.58278527 477.01565162 142.57846642 480.423069 C142.55733062 500.28623247 143.74563502 519.42459439 148.7270304 538.71424443 C149.57002406 541.97916112 150 544.58864036 150 548 C142.36083015 550.48244531 134.72015376 552.96017401 127.07750225 555.43187714 C123.52885617 556.57970557 119.98075349 557.72915843 116.43383789 558.88232422 C113.01158062 559.99489538 109.58796843 561.10319852 106.16337013 562.20854187 C104.85632867 562.63124013 103.54978482 563.05548025 102.24374962 563.48127747 C100.41601687 564.07687043 98.58634529 564.66650367 96.7565918 565.25585938 C95.71512497 565.59339233 94.67365814 565.93092529 93.60063171 566.27868652 C91 567 91 567 88 567 C80.64784989 545.93158566 79.55112999 525.79664794 79.61123729 503.5854125 C79.61812343 499.79247996 79.60745563 495.99958869 79.59895325 492.20666504 C79.58646573 485.6519611 79.58438688 479.09732313 79.58930969 472.54261017 C79.59616529 463.04091591 79.58351635 453.53931961 79.56580251 444.03764293 C79.53723579 428.58336782 79.51966311 413.12910338 79.51123047 397.67480469 C79.51072329 396.75252932 79.51021611 395.83025395 79.50969356 394.88003084 C79.50616777 388.33668736 79.50303832 381.79334372 79.5 375.25 C79.49653146 367.78222641 79.49288163 360.31445296 79.48876953 352.84667969 C79.48826692 351.9267591 79.4877643 351.0068385 79.48724645 350.05904153 C79.4784702 334.66188967 79.45797055 319.26477425 79.42928743 303.86764693 C79.41221489 294.40253246 79.4054739 284.93752176 79.41259348 275.47239396 C79.41680643 268.97572476 79.41031603 262.47912058 79.39579475 255.98246649 C79.38782294 252.24888937 79.38447705 248.51547402 79.39461708 244.7818985 C79.51018431 198.6282099 70.86593564 152.5084915 41.25097656 115.56103516 C40.08195571 114.1022687 38.94212426 112.62024392 37.8046875 111.13671875 C29.1018755 100.04143629 19.10702021 90.33210761 7.9375 81.75 C7.22335937 81.20102051 6.50921875 80.65204102 5.7734375 80.08642578 C0.80105127 76.13709567 0.80105127 76.13709567 -5 74 C-7.44316037 75.24051941 -9.24694253 76.39932265 -11.375 78.0625 C-11.97932861 78.51641113 -12.58365723 78.97032227 -13.20629883 79.43798828 C-55.25293262 111.51212698 -78.74499327 155.05407302 -86.61450195 206.99487305 C-87.73121834 215.70016879 -88.14597145 224.2300499 -88.13803101 233.00880432 C-88.14226293 234.92698193 -88.14226293 234.92698193 -88.14658034 236.8839106 C-88.15427597 240.40859485 -88.15594965 243.93325957 -88.15663147 247.45795119 C-88.15848165 251.26932141 -88.16609448 255.08068047 -88.17311096 258.89204407 C-88.18460638 265.49109824 -88.19286659 272.0901499 -88.19923019 278.68921089 C-88.20959175 289.13323252 -88.23016482 299.57722273 -88.25234985 310.02122498 C-88.25982862 313.6004609 -88.26724252 317.17969696 -88.27463722 320.75893307 C-88.27648779 321.65332476 -88.27833835 322.54771644 -88.280245 323.46921091 C-88.30114944 333.63808092 -88.31998792 343.80695438 -88.33789062 353.97583008 C-88.33952881 354.90476882 -88.34116699 355.83370757 -88.34285481 356.79079597 C-88.36912051 371.83274399 -88.38777684 386.87469445 -88.40448253 401.91665567 C-88.42194162 417.38808277 -88.45082651 432.85946211 -88.4893719 448.33085102 C-88.51268563 457.8575582 -88.52675867 467.38418748 -88.52869953 476.91092341 C-88.53081913 483.44829396 -88.54383319 489.98558722 -88.56517886 496.522923 C-88.57712911 500.28606385 -88.58441239 504.04905137 -88.57846642 507.81221008 C-88.5583284 522.46259914 -88.53921178 536.68503502 -92 551 C-92.2035932 551.8828898 -92.40718639 552.76577959 -92.61694908 553.67542362 C-93.09684096 555.64890426 -93.63706869 557.60751984 -94.1875 559.5625 C-94.53167969 560.80128906 -94.87585938 562.04007813 -95.23046875 563.31640625 C-95.48441406 564.20199219 -95.73835938 565.08757813 -96 566 C-99.75050247 567.38231183 -102.13706025 566.58980723 -105.87011719 565.36938477 C-107.05103943 564.98891495 -108.23196167 564.60844513 -109.44866943 564.21644592 C-110.73147791 563.79165396 -112.01421138 563.3666354 -113.296875 562.94140625 C-114.6136589 562.5130882 -115.93074122 562.08568661 -117.24810791 561.65916443 C-120.71004688 560.53557765 -124.16779471 559.39959645 -127.62481689 558.26098633 C-131.15498308 557.10072263 -134.68897122 555.95222665 -138.22265625 554.80273438 C-145.15223179 552.54665616 -152.07742184 550.27747036 -159 548 C-158.68862099 546.27808724 -158.37675724 544.55626214 -158.06469727 542.83447266 C-157.8910817 541.87562164 -157.71746613 540.91677063 -157.53858948 539.92886353 C-157.03039644 537.16529664 -156.50294966 534.40631737 -155.96484375 531.6484375 C-155.79533203 530.77703125 -155.62582031 529.905625 -155.45117188 529.0078125 C-155.10711207 527.24434248 -154.76073592 525.48132289 -154.41210938 523.71875 C-154.24388672 522.84992187 -154.07566406 521.98109375 -153.90234375 521.0859375 C-153.75273193 520.3232959 -153.60312012 519.5606543 -153.44897461 518.77490234 C-152.17097901 510.8762085 -151.85236579 503.18088062 -151.85523987 495.19462585 C-151.8499496 493.45241413 -151.8499496 493.45241413 -151.84455246 491.67500621 C-151.83576431 488.47309634 -151.83131592 485.27121503 -151.82870948 482.06929529 C-151.82479294 478.60686236 -151.81515645 475.14444486 -151.80615234 471.68202209 C-151.79125074 465.68591822 -151.77968896 459.68981555 -151.77020454 453.69370079 C-151.75628035 445.00265781 -151.73508364 436.31164341 -151.71177601 427.62062106 C-151.6738943 413.48951911 -151.6389273 399.35841197 -151.60717773 385.22729492 C-151.60527724 384.38231482 -151.60337675 383.53733472 -151.60141867 382.66674916 C-151.57463271 370.6969124 -151.55074412 358.7270716 -151.52803367 346.7572265 C-151.52643637 345.9155815 -151.52483906 345.0739365 -151.52319336 344.20678711 C-151.52080316 342.94587487 -151.52080316 342.94587487 -151.51836468 341.65948965 C-151.491503 327.59269273 -151.45706386 313.5259262 -151.41653961 299.45916206 C-151.39190032 290.80239094 -151.37349841 282.14565232 -151.363384 273.48885182 C-151.35593549 267.54249309 -151.341324 261.5961781 -151.32131977 255.64984848 C-151.31004396 252.23064923 -151.30288558 248.81157998 -151.30232811 245.39235306 C-151.28183809 175.80885982 -130.58656524 106.5879506 -80.4375 56.25 C-79.29512081 55.16302488 -78.14918806 54.07977402 -77 53 C-74.427788 50.45317168 -71.88754007 47.88301486 -69.37890625 45.2734375 C-62.6470511 38.30684767 -55.56105977 32.16701261 -47.81201172 26.35888672 C-46.00251003 25.00188236 -44.20632905 23.62848348 -42.41015625 22.25390625 C-33.64483666 15.6191034 -24.4931328 9.72933889 -15 4.18798828 C-13.68967185 3.40966104 -12.39659728 2.60134565 -11.125 1.76123047 C-6.94636884 -0.9134142 -4.71478715 -1.628002 0 0 Z " fill="#191919" transform="translate(290,82)"/>
<path d="M0 0 C1.8359375 1.46875 1.8359375 1.46875 3 3 C2.6875 5.6875 2.6875 5.6875 2 8 C-2.05694421 7.56141144 -5.43743382 6.4579423 -9.1875 4.9375 C-20.0650704 0.94076148 -30.37848843 3.20072178 -41 7 C-44.36445096 8.66068917 -47.16678311 10.54771983 -50 13 C-50.57234375 13.48984375 -51.1446875 13.9796875 -51.734375 14.484375 C-58.07100534 20.82100534 -60.16935741 30.21703672 -60.4375 38.9375 C-59.64920199 57.68421195 -51.67365974 71.98993046 -40 86 C-39.53480957 86.56138672 -39.06961914 87.12277344 -38.59033203 87.70117188 C-35.4319671 91.50113022 -32.2254544 95.25688008 -29 99 C-28.02546875 100.1446875 -28.02546875 100.1446875 -27.03125 101.3125 C-23.58962599 105.31729885 -19.9865593 109.08194274 -16.1875 112.75 C-14.41841617 114.56962908 -12.79492776 116.41089748 -11.15625 118.34375 C-5.30907868 125.07610077 1.16569456 131.23175884 7.5 137.5 C22.66420231 152.50604574 22.66420231 152.50604574 29 160 C30.43468039 161.54429095 31.87176756 163.08635371 33.3125 164.625 C47.06753329 179.92923499 56.34159837 195.42182613 56.25878906 216.40039062 C56.26404602 218.0585228 56.26404602 218.0585228 56.26940918 219.75015259 C56.27817252 223.38558332 56.27239306 227.02081745 56.265625 230.65625 C56.26697396 233.20341021 56.26891642 235.75057016 56.27142334 238.29772949 C56.27436797 243.63373506 56.27029451 248.96967133 56.26074219 254.30566406 C56.24990426 260.42956867 56.25335312 266.55333958 56.264395 272.67724085 C56.27466024 278.61297849 56.27345059 284.54867556 56.26763153 290.48442078 C56.26630849 292.98793049 56.26789491 295.49144368 56.27259064 297.99494934 C56.32554314 334.1841354 56.32554314 334.1841354 51 345 C44.45113072 350.43169968 34.54249964 352.0225331 26.5 354.0625 C25.16677748 354.40760709 23.83368915 354.75323297 22.50073242 355.09936523 C15.12558514 357.00299363 7.73532671 358.85358569 0.3125 360.5625 C-0.40421875 360.73080322 -1.1209375 360.89910645 -1.859375 361.07250977 C-5.09924297 361.78384758 -6.78670486 362.07109838 -10 361 C-9.84643036 360.00753265 -9.69286072 359.01506531 -9.53463745 357.99252319 C-8.97320818 354.04669469 -8.6700128 350.09747055 -8.44580078 346.11962891 C-8.40369036 345.3820315 -8.36157993 344.64443409 -8.31819344 343.88448524 C-7.8977741 335.95105052 -7.85551407 328.02853288 -7.8671875 320.0859375 C-7.86599911 318.5110776 -7.8644747 316.93621792 -7.86264038 315.36135864 C-7.85894423 310.36588729 -7.86642228 305.37046291 -7.875 300.375 C-7.87727281 298.65974939 -7.87951064 296.94449874 -7.88171387 295.22924805 C-7.89816882 283.81937365 -7.93949446 272.40972185 -8 261 C-8.0062439 259.75899536 -8.01248779 258.51799072 -8.0189209 257.23937988 C-8.05160586 251.44331598 -8.10430088 245.64856175 -8.20953369 239.85333252 C-8.23601984 238.31302114 -8.25655815 236.77259318 -8.27044678 235.2321167 C-8.56985174 205.77017066 -29.43427182 185.27457763 -48.37109375 164.84765625 C-50.83973559 162.17359994 -53.26791572 159.46840086 -55.6875 156.75 C-59.0437374 153.00489374 -62.53380616 149.44431101 -66.11328125 145.9140625 C-68.54091011 143.45125061 -70.7890943 140.86242028 -73.03515625 138.234375 C-74.48464392 136.58605104 -75.97881221 134.97676595 -77.49609375 133.390625 C-93.8630755 116.21109806 -105.74814921 97.30360094 -106 73 C-104.82663351 52.55300248 -97.68245545 33.51229454 -83 19 C-81.89398437 17.86111328 -81.89398437 17.86111328 -80.765625 16.69921875 C-61.56055265 -1.95805791 -25.05899992 -13.16808607 0 0 Z " fill="#191919" transform="translate(866,204)"/>
<path d="M0 0 C0.97324219 0.21672363 1.94648437 0.43344727 2.94921875 0.65673828 C10.92673252 2.52599412 18.72675271 4.85284022 26.5 7.4375 C27.59119141 7.78804443 28.68238281 8.13858887 29.80664062 8.49975586 C37.04051885 11.00938813 42.57791793 14.08896087 46.54638672 20.84350586 C49.36090224 26.89463131 49.6241983 32.99511625 49.60006714 39.56559753 C49.59880487 40.30052486 49.59754259 41.03545219 49.59624207 41.79265004 C49.59088312 44.24486193 49.57836068 46.69698454 49.56591797 49.14916992 C49.56072178 50.9123064 49.55601425 52.67544438 49.55175781 54.43858337 C49.54182686 58.23300215 49.52897991 62.02739604 49.51403427 65.82179832 C49.49090336 71.83857138 49.47764505 77.85534116 49.46633911 83.87214661 C49.43296891 100.98145815 49.39157028 118.09072102 49.32861328 135.19995117 C49.293917 144.65157498 49.27021913 154.10316196 49.25840485 163.55484277 C49.25167839 168.54708817 49.23940323 173.53917744 49.21337509 178.53136253 C49.18882642 183.24033044 49.17873284 187.94912183 49.17897034 192.65815163 C49.1765807 194.37079027 49.1691542 196.08343193 49.15584183 197.79602051 C49.08919739 206.75601699 49.48612289 215.43972981 50.85623169 224.30586243 C50.97582021 225.08218307 51.09540872 225.85850371 51.21862113 226.65834922 C52.19321096 232.39098324 53.88691324 237.36378025 56.4140625 242.6171875 C57.52169246 245.11134706 58.00777948 247.38893609 58.5 250.0625 C45.28804886 254.63452536 31.99863548 258.90614897 18.59686279 262.88409424 C17.07782954 263.33521387 15.55947134 263.78861303 14.04180908 264.24432373 C11.89063372 264.88893933 9.73687633 265.52402495 7.58203125 266.15625 C5.71381714 266.70829102 5.71381714 266.70829102 3.80786133 267.27148438 C0.87306702 267.97328772 -1.50524667 268.23592347 -4.5 268.0625 C-7.71453594 261.84421735 -10.06864671 255.65126697 -11.75 248.875 C-11.91274414 248.22273437 -12.07548828 247.57046875 -12.24316406 246.8984375 C-13.93271802 239.76715669 -14.62327912 232.85213205 -14.63803101 225.54185486 C-14.64085229 224.82942031 -14.64367357 224.11698576 -14.64658034 223.38296229 C-14.65484691 221.01953836 -14.65625766 218.65616175 -14.65771484 216.29272461 C-14.66238872 214.58863699 -14.66753322 212.8845506 -14.67311096 211.1804657 C-14.68434997 207.52248694 -14.69280406 203.86451613 -14.69923019 200.2065258 C-14.7099491 194.41968157 -14.73020217 188.63289497 -14.75234985 182.84608459 C-14.81415029 166.39473092 -14.86832089 149.94338186 -14.90136719 133.49194336 C-14.91971585 124.39706932 -14.94864857 115.3022931 -14.9893719 106.20749098 C-15.01042522 101.39902875 -15.02589694 96.59068963 -15.02817917 91.78217888 C-15.03032746 87.26192678 -15.04621527 82.74193169 -15.07256889 78.22175789 C-15.07975445 76.56538434 -15.08186646 74.90897964 -15.07846642 73.25259399 C-15.074559 70.98681392 -15.08906582 68.72184963 -15.10800171 66.4561615 C-15.11131186 65.18986876 -15.114622 63.92357603 -15.11803246 62.61891079 C-15.56626307 58.44553999 -16.60275336 55.79012542 -18.5 52.0625 C-23.8630591 47.86677715 -31.8416395 46.86828185 -38.37109375 45.5546875 C-39.87640404 45.23735153 -39.87640404 45.23735153 -41.41212463 44.91360474 C-44.58535159 44.24539264 -47.76105 43.59020512 -50.9375 42.9375 C-54.13872291 42.27673568 -57.33918875 41.61299938 -60.53785706 40.93997192 C-62.52064178 40.52297687 -64.50494583 40.1131291 -66.49082947 39.71115112 C-67.38258377 39.52400543 -68.27433807 39.33685974 -69.19311523 39.14404297 C-69.97871323 38.98290009 -70.76431122 38.8217572 -71.57371521 38.6557312 C-73.5 38.0625 -73.5 38.0625 -75.5 36.0625 C-55.18273083 16.33336231 -29.66961317 -6.63579573 0 0 Z " fill="#191919" transform="translate(628.5,337.9375)"/>
<path d="M0 0 C7.39265896 7.73650356 8.99987642 17.82727461 8.95251465 28.19680786 C8.95908655 29.38690643 8.95908655 29.38690643 8.96579123 30.6010474 C8.97801367 33.2329513 8.97630979 35.86465323 8.97460938 38.49658203 C8.98064006 40.39473258 8.98756595 42.29288047 8.99531555 44.19102478 C9.01016271 48.26695663 9.01894337 52.34283984 9.02302551 56.41879654 C9.02976582 62.87583505 9.0515533 69.3327702 9.07556152 75.7897644 C9.12445455 89.50565196 9.15679869 103.22156149 9.1875 116.9375 C9.22064072 131.72696075 9.25673689 146.51638084 9.31163073 161.30577934 C9.33484796 167.71177945 9.34868746 174.11770781 9.35512543 180.52374578 C9.36110614 184.52660746 9.37523893 188.52941175 9.39146996 192.53224373 C9.39729628 194.37393375 9.39982864 196.21563796 9.39863014 198.05733681 C9.19513889 218.89505682 9.19513889 218.89505682 15.25 238.5625 C15.87689595 239.89034479 16.50322219 241.21845874 17.12890625 242.546875 C17.64324219 243.62453125 18.15757813 244.7021875 18.6875 245.8125 C19.0175 246.8025 19.3475 247.7925 19.6875 248.8125 C-12.98786776 259.52864654 -12.98786776 259.52864654 -28.125 264 C-29.5790625 264.43614624 -29.5790625 264.43614624 -31.0625 264.88110352 C-31.95582031 265.14076904 -32.84914063 265.40043457 -33.76953125 265.66796875 C-34.53241455 265.89121826 -35.29529785 266.11446777 -36.08129883 266.34448242 C-38.57741713 266.86806911 -40.76918784 266.99776021 -43.3125 266.8125 C-52.48994763 258.15575862 -53.58767792 237.63670979 -54.3125 225.8125 C-54.46098677 219.81468873 -54.466692 213.81871301 -54.47021484 207.81933594 C-54.47489182 206.01941303 -54.48003682 204.21949128 -54.48561096 202.41957092 C-54.49683065 198.56194929 -54.50529408 194.7043351 -54.51173019 190.84670258 C-54.52248096 184.73397511 -54.54274375 178.62130159 -54.56484985 172.50860596 C-54.62653886 155.13255284 -54.68074044 137.75650397 -54.71386719 120.38037109 C-54.73226953 110.76937783 -54.7612713 101.15847623 -54.8018719 91.54755044 C-54.82283944 86.47283674 -54.83838462 81.39823798 -54.84067917 76.3234787 C-54.84284207 71.54626652 -54.85887703 66.76929404 -54.88506889 61.99215508 C-54.89219988 60.25044773 -54.89439342 58.50871114 -54.89096642 56.76699257 C-54.86933997 43.67370928 -54.94203091 29.93723348 -62.2265625 18.546875 C-63.3125 16.8125 -63.3125 16.8125 -64.3125 13.8125 C-13.94684016 -9.21017747 -13.94684016 -9.21017747 0 0 Z " fill="#191919" transform="translate(1261.3125,339.1875)"/>
<path d="M0 0 C8.28902125 15.72875753 9.59465078 31.35662362 9.48583984 48.78564453 C9.4879914 50.8130518 9.4918775 52.84045785 9.49734497 54.86785889 C9.50695254 60.32235509 9.49184379 65.77651866 9.47143888 71.23097467 C9.45372854 76.96809601 9.45739565 82.70520919 9.4581604 88.44235229 C9.45629373 98.07018521 9.4390149 107.69789122 9.41162109 117.32568359 C9.38015934 128.42351567 9.36962595 139.5212091 9.3710922 150.61908257 C9.37244778 162.48603179 9.35854248 174.35292829 9.34019899 186.21986151 C9.33595656 189.6175453 9.33451942 193.01522046 9.33372116 196.41290665 C9.33169763 201.76961248 9.31936987 207.12620403 9.29938889 212.48287201 C9.29359658 214.43744836 9.29107629 216.39203788 9.29224396 218.34662247 C9.30179725 244.09460826 9.30179725 244.09460826 6 254 C3.52598572 255.08207703 3.52598572 255.08207703 0.19506836 256.0847168 C-1.04614273 256.46488449 -2.28735382 256.84505219 -3.56617737 257.23674011 C-4.93075922 257.64116217 -6.29542079 258.04531536 -7.66015625 258.44921875 C-9.04910779 258.86984257 -10.43773054 259.29155354 -11.82603455 259.71430969 C-15.48397433 260.82499843 -19.14620542 261.92082623 -22.80950928 263.01367188 C-26.54561937 264.13107375 -30.27750503 265.26239896 -34.00976562 266.39257812 C-41.33576878 268.6087407 -48.66635873 270.80922873 -56 273 C-56.8756617 269.8412749 -56.97189931 267.99707343 -56.125 264.8125 C-54.11384134 257.17859496 -53.85141815 249.41321515 -53.87060547 241.55932617 C-53.86888431 240.65351083 -53.86716314 239.74769548 -53.86538982 238.81443119 C-53.86106517 235.80725868 -53.86400606 232.800142 -53.8671875 229.79296875 C-53.86604216 227.63376852 -53.86456388 225.47456845 -53.86277771 223.31536865 C-53.85975563 217.4851512 -53.86402035 211.65496256 -53.87082291 205.82474899 C-53.87500061 202.18696873 -53.8779618 198.54918907 -53.88070679 194.91140747 C-53.89573109 177.27419057 -53.93862297 159.63711405 -54 142 C-54.00638615 140.15264755 -54.00638615 140.15264755 -54.01290131 138.26797485 C-54.06719264 123.01113419 -54.14719387 107.75468881 -54.26446533 92.49819946 C-54.29772715 88.14142156 -54.32458419 83.78467836 -54.34588623 79.42782593 C-54.3715307 74.30613763 -54.41167854 69.18476347 -54.46306038 64.06327057 C-54.47956781 62.1989332 -54.49128549 60.33454577 -54.49764824 58.47014618 C-54.49165255 40.07329177 -54.49165255 40.07329177 -62.01171875 23.62109375 C-63 22 -63 22 -63 19 C-55.36992434 16.54445425 -47.73549109 14.10267694 -40.09844971 11.66888428 C-38.65122845 11.20758013 -37.20408987 10.74601654 -35.75701904 10.28424072 C-31.00348537 8.76753207 -26.24838524 7.2558868 -21.49136353 5.75015259 C-19.91420203 5.25018216 -18.33751982 4.74869731 -16.76132202 4.24569702 C-14.53225655 3.53471288 -12.30152269 2.8292199 -10.0703125 2.125 C-9.06405067 1.80212761 -9.06405067 1.80212761 -8.03746033 1.47273254 C-5.23018719 0.5921842 -2.96381511 0 0 0 Z " fill="#191919" transform="translate(543,335)"/>
<path d="M0 0 C-0.67546875 0.56847656 -1.3509375 1.13695312 -2.046875 1.72265625 C-8.2198038 7.06598624 -13.40699454 11.68858201 -15 20 C-15.09534151 22.05156242 -15.13488522 24.10595991 -15.14044189 26.159729 C-15.14615204 27.42420364 -15.15186218 28.68867828 -15.15774536 29.99147034 C-15.15899064 31.39047231 -15.16011575 32.7894744 -15.16113281 34.18847656 C-15.16576285 35.6637535 -15.17078776 37.13902924 -15.17617798 38.61430359 C-15.1892869 42.620674 -15.1957441 46.62702767 -15.20018864 50.63341618 C-15.20312205 53.13810767 -15.20722739 55.64279462 -15.21169281 58.14748383 C-15.22536434 65.98887016 -15.23503244 73.83024607 -15.2388947 81.6716435 C-15.24337347 90.71435027 -15.26091438 99.75690573 -15.2898953 108.79956651 C-15.31153458 115.79504652 -15.3216002 122.79048404 -15.32293582 129.78599715 C-15.32398232 133.96133606 -15.32985701 138.13653266 -15.34775543 142.31183624 C-15.36427484 146.24186428 -15.36637297 150.17164365 -15.35761642 154.10169411 C-15.35684809 155.5399702 -15.36116184 156.97825987 -15.37107468 158.416502 C-15.52352139 171.01344107 -15.52352139 171.01344107 -9.62109375 181.78125 C-4.82519328 185.30344647 1.24725764 186.2033773 6.9375 187.5 C8.16629883 187.79334229 9.39509766 188.08668457 10.66113281 188.38891602 C22.07024985 191.08825016 33.52333247 193.60482554 45 196 C43.20593877 199.926779 41.18156732 201.65777366 37.6875 204.25 C36.50885073 205.1324602 35.33048579 206.01530023 34.15234375 206.8984375 C33.4960498 207.38666992 32.83975586 207.87490234 32.16357422 208.37792969 C28.89918761 210.82529875 25.67284234 213.32155787 22.44165039 215.8125 C19.73538432 217.88619939 17.00984727 219.93236989 14.28125 221.9765625 C10.91875855 224.50329721 7.66556809 227.10331103 4.46875 229.8359375 C-5.2987038 237.93574994 -5.2987038 237.93574994 -11.77734375 238.08984375 C-15.39375951 237.42216962 -18.7762348 236.15438994 -22.22412109 234.89990234 C-28.18295256 232.96812989 -34.3834794 231.83439084 -40.5 230.5 C-65.43299057 225.01770379 -65.43299057 225.01770379 -72.4375 214.9296875 C-78.09349855 205.26735665 -80.12308802 195.6173931 -80.20532227 184.48681641 C-80.21521337 183.64825828 -80.22510447 182.80970015 -80.2352953 181.94573116 C-80.266879 179.16437001 -80.29171201 176.3829927 -80.31640625 173.6015625 C-80.3371863 171.63125749 -80.3583219 169.66095619 -80.37979126 167.69065857 C-80.4357154 162.42327487 -80.48527914 157.15585105 -80.5328331 151.88838577 C-80.56245901 148.62950908 -80.59337354 145.37064699 -80.62466431 142.11178589 C-80.75628515 128.33847316 -80.87369602 114.56508305 -80.97868347 100.79154205 C-80.9986782 98.17309806 -81.0191395 95.55465808 -81.03967285 92.93621826 C-81.10254414 84.79130438 -81.15245038 76.64654726 -81.17623901 68.50140381 C-81.18364192 66.2406892 -81.1942293 63.97998237 -81.20828247 61.71929932 C-81.40085394 28.25754857 -81.40085394 28.25754857 -76 21 C-69.38739392 16.95853528 -62.08439647 14.98477036 -54.6875 12.8125 C-54.05258636 12.62423645 -53.41767273 12.4359729 -52.76351929 12.24200439 C-41.50371104 8.90769026 -30.17440464 5.84055966 -18.8125 2.875 C-18.04062347 2.67105621 -17.26874695 2.46711243 -16.47348022 2.25698853 C-14.28274465 1.68039294 -12.08933162 1.11558448 -9.89453125 0.5546875 C-8.63487549 0.22968262 -7.37521973 -0.09532227 -6.07739258 -0.43017578 C-3 -1 -3 -1 0 0 Z " fill="#191919" transform="translate(811,370)"/>
<path d="M0 0 C1.59859863 0.39505737 1.59859863 0.39505737 3.22949219 0.7980957 C11.46668818 2.88021575 19.62117468 5.21809965 27.75 7.6875 C28.85021484 8.02007812 29.95042969 8.35265625 31.08398438 8.6953125 C32.11330078 9.01628906 33.14261719 9.33726562 34.203125 9.66796875 C35.10708008 9.94922607 36.01103516 10.2304834 36.94238281 10.52026367 C42.03218268 12.46999323 45.63622699 14.82250408 48.5 19.5 C51.66275692 28.59386202 51.92586297 37.588656 51.87231445 47.09643555 C51.87474838 48.62725572 51.8784735 50.15807429 51.88337708 51.68888855 C51.89271149 55.81324124 51.88342173 59.93735346 51.87004495 64.06168723 C51.85863777 68.40455342 51.86284533 72.74740936 51.86479187 77.09028625 C51.86567241 84.38566967 51.85464881 91.68095975 51.83618164 98.97631836 C51.81505751 107.36845114 51.8114972 115.76044696 51.8177436 124.15260094 C51.82347378 132.27161608 51.81774631 140.39058377 51.80657005 148.50959206 C51.80196809 151.94254257 51.80103091 155.37546364 51.8031559 158.80841637 C51.80506429 162.86742048 51.796743 166.92628877 51.7810955 170.98526192 C51.77691568 172.46006584 51.77595849 173.93488372 51.77878571 175.40969086 C51.79151763 183.2510921 51.4798941 190.97154729 50.60783386 198.76521301 C50.53042223 199.47990743 50.4530106 200.19460185 50.37325317 200.93095368 C49.93865325 204.45980786 49.48847673 207.50485101 47.5 210.5 C45.609375 211.51391602 45.609375 211.51391602 43.25 212.25390625 C42.34725342 212.54587891 41.44450684 212.83785156 40.5144043 213.13867188 C39.02227417 213.5959668 39.02227417 213.5959668 37.5 214.0625 C36.46721924 214.39185547 35.43443848 214.72121094 34.37036133 215.06054688 C32.05545332 215.79861882 29.73867336 216.53083601 27.42041016 217.25830078 C23.08467513 218.62407326 18.76720912 220.04415546 14.44921875 221.46484375 C12.12932402 222.2256999 9.80921978 222.98591303 7.48901367 223.74581909 C5.95587341 224.24821242 4.42299497 224.75140548 2.89038086 225.25540161 C0.72392141 225.96640692 -1.44438421 226.67147114 -3.61328125 227.375 C-4.26541092 227.59022812 -4.91754059 227.80545624 -5.58943176 228.02720642 C-8.36296282 228.92149469 -10.5623975 229.5 -13.5 229.5 C-13.49446924 228.20459038 -13.49446924 228.20459038 -13.48882675 226.88301086 C-13.40044622 205.8586808 -13.33427599 184.83438281 -13.29275131 163.80990601 C-13.27213595 153.64257125 -13.24403492 143.47536058 -13.19824219 133.30810547 C-13.15834307 124.44516192 -13.13255973 115.58230825 -13.12364602 106.71927738 C-13.11843649 102.02738886 -13.10621354 97.33575745 -13.07707977 92.64395142 C-13.04986209 88.22477396 -13.04156782 83.80595872 -13.04756927 79.3867054 C-13.04647187 77.76781303 -13.03855578 76.14890813 -13.0231781 74.53008842 C-12.93728883 65.019257 -12.93605496 57.65119927 -19.53588867 50.20214844 C-24.07474041 47.59570133 -28.86865473 46.51448427 -33.92578125 45.265625 C-35.02850876 44.98273621 -36.13123627 44.69984741 -37.26737976 44.40838623 C-40.77950453 43.51031008 -44.29579659 42.62995681 -47.8125 41.75 C-50.19886415 41.14309152 -52.58493582 40.53503174 -54.97070312 39.92578125 C-60.81047782 38.43715994 -66.65377029 36.96305254 -72.5 35.5 C-72.5 34.51 -72.5 33.52 -72.5 32.5 C-70.29455722 30.58717882 -68.11369912 28.88645215 -65.75 27.1875 C-65.04061279 26.66768555 -64.33122559 26.14787109 -63.6003418 25.61230469 C-61.24320075 23.89440991 -58.87349507 22.19521904 -56.5 20.5 C-55.67129395 19.90590332 -54.84258789 19.31180664 -53.98876953 18.69970703 C-20.54485395 -5.20528841 -20.54485395 -5.20528841 0 0 Z " fill="#191919" transform="translate(1106.5,338.5)"/>
<path d="M0 0 C-0.06983093 0.83640518 -0.13966187 1.67281036 -0.21160889 2.53456116 C-1.29929414 17.76402091 -1.18246823 33.02027041 -1.20018864 48.27988696 C-1.20314759 50.70208185 -1.20725674 53.12427231 -1.21169281 55.54646492 C-1.22529878 63.15181114 -1.23500463 70.7571469 -1.2388947 78.36250442 C-1.24338942 87.09602985 -1.26103152 95.82939988 -1.2898953 104.56287807 C-1.31154903 111.35313303 -1.32160059 118.14334429 -1.32293582 124.93363339 C-1.32397916 128.97358778 -1.32978868 133.01339469 -1.34775543 137.0533123 C-1.36430548 140.84645193 -1.36635835 144.63933401 -1.35761642 148.43249702 C-1.35685034 149.81672993 -1.36113162 151.20097716 -1.37107468 152.58517456 C-1.43663897 162.28695946 -1.26993723 173.09444329 5.8581543 180.55908203 C8.65419966 182.44011016 11.25155008 183.10343558 14.51953125 183.9296875 C15.494916 184.17800323 15.494916 184.17800323 16.49000549 184.43133545 C25.09008391 186.58288511 33.76686845 188.40925992 42.4375 190.25 C44.15176621 190.6168442 45.86595939 190.98402985 47.58007812 191.3515625 C51.71922407 192.23829794 55.85931909 193.12046138 60 194 C60 194.99 60 195.98 60 197 C57.74498282 198.7634603 55.52073622 200.32309934 53.125 201.875 C51.64312386 202.86247456 50.16270735 203.85214229 48.68359375 204.84375 C47.90999512 205.36066406 47.13639648 205.87757813 46.33935547 206.41015625 C43.31441046 208.46593186 40.3548413 210.60305198 37.40185547 212.76049805 C35.91632094 213.84361159 34.42432967 214.91792046 32.92626953 215.98364258 C28.93219761 218.82651206 25.0598982 221.74504419 21.26953125 224.85546875 C10.00795095 233.81940452 10.00795095 233.81940452 3.03125 234.23828125 C-0.76576381 233.61615586 -4.30712816 232.30802785 -7.91699219 231.00634766 C-11.77919746 229.74565632 -15.68283004 228.79787146 -19.6328125 227.85546875 C-21.20578149 227.47563981 -22.77869759 227.09559175 -24.3515625 226.71533203 C-25.53540527 226.42943207 -25.53540527 226.42943207 -26.74316406 226.13775635 C-27.52916992 225.94792175 -28.31517578 225.75808716 -29.125 225.5625 C-29.89779297 225.37685486 -30.67058594 225.19120972 -31.46679688 224.99993896 C-52.2696625 219.94117074 -52.2696625 219.94117074 -58.68359375 209.47265625 C-62.94820538 201.46227298 -65.09833859 194.18362555 -65.18513489 185.09913635 C-65.19289513 184.41714438 -65.20065537 183.73515241 -65.20865077 183.03249401 C-65.23331452 180.754187 -65.25109121 178.47588068 -65.26879883 176.19750977 C-65.28493257 174.56120454 -65.30143143 172.92490288 -65.31826782 171.28860474 C-65.37156439 165.92292447 -65.41455812 160.55718127 -65.45703125 155.19140625 C-65.47223409 153.34255362 -65.48749501 151.49370146 -65.50281334 149.64484978 C-65.57410962 140.96202129 -65.64062406 132.27917191 -65.70140249 123.59626347 C-65.77171813 113.57595895 -65.85864709 103.55597572 -65.95958501 93.53593403 C-66.03655707 85.78726689 -66.0980686 78.03857099 -66.14799136 70.28968281 C-66.1781814 65.6627183 -66.21506411 61.03603487 -66.26828957 56.40927315 C-66.31796605 52.0582448 -66.34847636 47.70749925 -66.36432266 43.35622025 C-66.37343885 41.76063582 -66.38944785 40.16507343 -66.41290474 38.56963539 C-66.44391094 36.38867478 -66.44991004 34.20899682 -66.44978333 32.02784729 C-66.45954602 30.80835671 -66.46930872 29.58886614 -66.47936726 28.3324213 C-65.90022585 24.30639924 -64.52142783 22.15422476 -62 19 C-53.45082069 13.65643716 -42.23242085 11.60545495 -32.5625 8.9375 C-30.28706005 8.30288322 -28.0122417 7.66608846 -25.73764038 7.0284729 C-24.26108263 6.61458486 -22.78421944 6.2017848 -21.30703735 5.79013062 C-15.64183357 4.20402765 -10.02711506 2.48824397 -4.42163086 0.70141602 C-2 0 -2 0 0 0 Z " fill="#191919" transform="translate(1032,373)"/>
<path d="M0 0 C4.49257056 2.82710048 8.52437299 6.0787159 12.5078125 9.578125 C13.22066406 10.19558594 13.93351562 10.81304687 14.66796875 11.44921875 C23.0268303 19.19606346 28.76439229 29.0200195 29.8828125 40.390625 C29.50466706 52.63308374 20.15819357 63.09259257 12.6953125 72.015625 C12.08147705 72.75498291 11.4676416 73.49434082 10.83520508 74.25610352 C6.19266846 79.82190303 1.41399231 85.24333841 -3.4921875 90.578125 C-5.13960623 92.41003384 -6.78544779 94.24336228 -8.4296875 96.078125 C-10.41562227 98.29172425 -12.38943358 100.47537108 -14.4921875 102.578125 C-10.30474675 102.63652724 -6.11741185 102.67185666 -1.9296875 102.703125 C-0.15754883 102.72826172 -0.15754883 102.72826172 1.65039062 102.75390625 C11.90568391 102.81531658 11.90568391 102.81531658 21.1953125 98.890625 C24.06939256 96.01654494 25.63754735 93.18011714 27.5078125 89.578125 C29.1578125 90.238125 30.8078125 90.898125 32.5078125 91.578125 C31.90416737 101.27492121 30.17903469 110.72365773 28.4453125 120.265625 C28.16037851 121.85343874 27.87587015 123.44132892 27.59179688 125.02929688 C26.90203393 128.87980415 26.20653809 132.72923447 25.5078125 136.578125 C21.51623746 138.0542839 17.72704557 137.22377959 13.6328125 136.65625 C2.91826956 135.3277585 -7.70920877 135.27162847 -18.4921875 135.328125 C-19.47077728 135.32989746 -20.44936707 135.33166992 -21.45761108 135.33349609 C-36.88084117 135.36623479 -52.15030504 135.89412331 -67.4921875 137.578125 C-65.69909755 133.71801502 -63.41195602 131.26374665 -60.3671875 128.265625 C-59.8707373 127.77489502 -59.37428711 127.28416504 -58.86279297 126.77856445 C-56.19758807 124.16545807 -53.47777947 121.66167639 -50.6171875 119.265625 C-40.82240835 110.87871965 -32.50308686 100.62232515 -24.4921875 90.578125 C-23.81671875 89.78277344 -23.14125 88.98742187 -22.4453125 88.16796875 C-13.30383244 77.27260007 -4.54336171 64.05944326 -5.09765625 49.33984375 C-6.40152877 40.21273614 -11.57068639 34.912771 -18.7109375 29.5 C-25.23494815 24.84488327 -25.23494815 24.84488327 -32.9921875 23.828125 C-33.8171875 24.075625 -34.6421875 24.323125 -35.4921875 24.578125 C-36.08598164 29.32847815 -35.17209765 32.44258489 -32.6015625 36.34375 C-27.7872942 41.44330827 -21.43257619 44.93169773 -15.4921875 48.578125 C-16.81571071 51.3587945 -18.29074828 53.85667004 -20.06640625 56.37109375 C-20.56624023 57.08015869 -21.06607422 57.78922363 -21.58105469 58.51977539 C-22.10860352 59.26090576 -22.63615234 60.00203613 -23.1796875 60.765625 C-23.9845459 61.90149048 -23.9845459 61.90149048 -24.80566406 63.06030273 C-28.56547837 68.34138006 -32.41355303 73.53727747 -36.4921875 78.578125 C-47.09831006 69.73968953 -59.23317206 59.36968595 -60.9296875 44.828125 C-60.11069575 29.0246176 -47.11105681 15.98585645 -36.00341797 5.86914062 C-24.6360489 -3.84178791 -13.52423552 -7.37685574 0 0 Z " fill="#191919" transform="translate(1431.4921875,154.421875)"/>
<path d="M0 0 C7.42747153 4.429112 14.05627952 10.4436238 20.72583008 15.92529297 C26.20599074 20.41064946 31.83538011 24.66197137 37.52612305 28.875 C42.21944259 32.36682502 46.72183875 36.00329673 51 40 C50.90843631 42.64088965 50.53216622 44.4279163 48.70458984 46.39257812 C46.90865837 47.91038563 45.06842975 49.3388437 43.1875 50.75 C42.17187988 51.53661011 42.17187988 51.53661011 41.13574219 52.33911133 C39.10169603 53.90815752 37.05419136 55.45745304 35 57 C34.43684082 57.42394043 33.87368164 57.84788086 33.29345703 58.28466797 C30.80957354 60.15086206 28.31883984 62.00756015 25.82421875 63.859375 C23.01334677 65.98988378 20.28249156 68.1924276 17.5625 70.4375 C16.67304687 71.16582031 15.78359375 71.89414062 14.8671875 72.64453125 C13.35724905 73.88498477 11.84864539 75.12717556 10.35253906 76.38427734 C8.64408008 77.81478431 6.91779787 79.22103349 5.1875 80.625 C4.660354 81.07544678 4.13320801 81.52589355 3.59008789 81.98999023 C0.94577851 84.10351825 -0.63375527 84.99249691 -4.05078125 85.0625 C-7.66182247 83.76156859 -9.62474162 82.04460564 -12.375 79.375 C-13.33019531 78.46621094 -14.28539062 77.55742187 -15.26953125 76.62109375 C-16.17058594 75.75613281 -17.07164063 74.89117187 -18 74 C-19.34520093 72.80235311 -20.69833682 71.61350274 -22.0625 70.4375 C-25.01707997 67.87326088 -27.91960685 65.25862443 -30.8125 62.625 C-35.24143722 58.625329 -39.81246632 54.83430496 -44.4453125 51.07421875 C-53.54 43.69 -53.54 43.69 -56 40 C-55.97265625 37.6015625 -55.97265625 37.6015625 -55 35 C-52.62109375 32.7109375 -52.62109375 32.7109375 -49.4375 30.375 C-48.86032227 29.94678955 -48.28314453 29.5185791 -47.68847656 29.07739258 C-42.63635859 25.36501447 -37.44642639 21.84775444 -32.25268555 18.33764648 C-26.18063122 14.20433474 -20.36312349 9.76946261 -14.58300781 5.23901367 C-13.91108398 4.7154126 -13.23916016 4.19181152 -12.546875 3.65234375 C-11.95745117 3.18820068 -11.36802734 2.72405762 -10.76074219 2.24584961 C-6.87273729 -0.5051888 -4.66051883 -1.51306277 0 0 Z " fill="#191919" transform="translate(1328,335)"/>
<path d="M0 0 C1.98 0 3.96 0 6 0 C5.99409222 0.8111473 5.98818443 1.6222946 5.98209763 2.45802212 C5.84234554 22.21434058 5.76908293 41.96993602 5.76940536 61.72676754 C5.76796555 71.28125768 5.74419908 80.8347093 5.66748047 90.38891602 C5.60065198 98.71855619 5.57611355 107.04707654 5.60190511 115.37696368 C5.61409247 119.78628353 5.60541223 124.19329253 5.5460434 128.60227776 C5.49076107 132.75748332 5.49227305 136.90889847 5.53630638 141.06420135 C5.54259586 142.58434586 5.52858755 144.10473925 5.49215889 145.62446022 C5.27958315 154.44004957 5.27958315 154.44004957 9.62599945 161.85339546 C12.55973652 164.22219857 15.74062392 166.10888336 19 168 C20.37106437 169.01226032 21.72957178 170.04251556 23.05859375 171.109375 C23.62900391 171.55410156 24.19941406 171.99882812 24.78710938 172.45703125 C25.33173828 172.88371094 25.87636719 173.31039062 26.4375 173.75 C27.00919922 174.19214844 27.58089844 174.63429688 28.16992188 175.08984375 C31.68326969 177.84082332 35.12602901 180.56673986 38 184 C38.14413842 186.99807916 37.05408243 187.9399326 35.05859375 190.15625 C26.21725266 198.06206915 16.87413885 205.41724077 7 212 C6.6931882 214.58729803 6.58432678 216.93841176 6.60127258 219.52957153 C6.59462576 220.31532244 6.58797893 221.10107334 6.58113068 221.91063488 C6.56239722 224.55790315 6.56511285 227.20472355 6.56762695 229.85205078 C6.55861609 231.7439539 6.54829055 233.63585114 6.53674316 235.52774048 C6.50906762 240.67623341 6.49987437 245.82461591 6.49388909 250.97317362 C6.48453279 256.34909382 6.45833174 261.72493062 6.43388367 267.10079956 C6.39013922 277.28634869 6.36164112 287.47188171 6.33856028 297.65749633 C6.3115511 309.25108213 6.26763704 320.84458435 6.22227156 332.43811059 C6.12931153 356.29202848 6.0576829 380.14597258 6 404 C4.02 404 2.04 404 0 404 C0.00775137 403.01970133 0.01550274 402.03940266 0.023489 401.02939796 C0.20902384 377.15862969 0.31378335 353.28854339 0.33421898 329.4170475 C0.34596496 317.87271651 0.38379772 306.32957942 0.48339844 294.78564453 C0.57016168 284.72188473 0.60761684 274.65934479 0.58627188 264.59521234 C0.57668354 259.26742176 0.59150496 253.94225861 0.66541672 248.61491776 C0.73427869 243.59532647 0.73697134 238.57995524 0.68990898 233.56015396 C0.68416246 231.72272692 0.70216031 229.88504078 0.74625206 228.04813385 C1.22361501 218.64594321 1.22361501 218.64594321 -2.36544371 210.30591536 C-5.66623803 207.2784603 -9.3336828 205.08289765 -13.26999354 202.98347735 C-15.89934767 201.48873713 -18.1741158 199.6101616 -20.5 197.6875 C-23.66742876 195.08089011 -23.66742876 195.08089011 -26.91015625 192.5703125 C-29.25732298 190.78358038 -30.86893125 189.24903063 -32.25 186.625 C-31.7761298 181.64936291 -27.38249181 178.1630393 -23.71142578 175.07470703 C-21.14948597 173.08999285 -18.55492056 171.16088933 -15.9375 169.25 C-15.05255859 168.59128906 -14.16761719 167.93257812 -13.25585938 167.25390625 C-6.40598962 162.18716088 -6.40598962 162.18716088 -3.39568043 160.79941082 C-0.71854911 159.19518259 -0.71854911 159.19518259 -0.36914349 156.14769459 C-0.36499542 154.39306164 -0.36499542 154.39306164 -0.36076355 152.60298157 C-0.34823004 151.62520942 -0.34823004 151.62520942 -0.33544332 150.6276843 C-0.3134612 148.43915585 -0.327134 146.25229718 -0.34057617 144.0637207 C-0.33212598 142.49678266 -0.32148326 140.92985512 -0.30880737 139.36294556 C-0.28059517 135.10484881 -0.28314412 130.84725466 -0.29110122 126.58909249 C-0.29422045 122.1407144 -0.2692091 117.69249804 -0.24714661 113.2441864 C-0.20965106 104.81879894 -0.19755537 96.39357291 -0.1945222 87.96811026 C-0.18983733 78.37685136 -0.15693243 68.78575477 -0.12162435 59.19456732 C-0.04962061 39.46306336 -0.01316204 19.73162515 0 0 Z " fill="#191919" transform="translate(283,223)"/>
</svg>
